<?xml version="1.0" standalone="no"?>
<!DOCTYPE svg PUBLIC "-//W3C//DTD SVG 20010904//EN"
 "http://www.w3.org/TR/2001/REC-SVG-20010904/DTD/svg10.dtd">
<svg version="1.0" xmlns="http://www.w3.org/2000/svg"
 width="1245.000000pt" height="1245.000000pt" viewBox="0 0 1245.000000 1245.000000"
 preserveAspectRatio="xMidYMid meet">
<metadata>
Created by potrace 1.11, written by Peter Selinger 2001-2013
</metadata>
<g transform="translate(0.000000,1245.000000) scale(0.100000,-0.100000)"
fill="#000000" stroke="none">
<path d="M5378 12445 c-2 -2 -34 -6 -73 -10 -38 -4 -72 -8 -75 -10 -3 -2 -21
-6 -40 -9 -49 -8 -79 -14 -100 -21 -10 -3 -27 -7 -37 -9 -61 -12 -157 -54
-210 -92 -34 -24 -134 -80 -221 -123 -411 -205 -714 -484 -902 -834 -65 -121
-117 -265 -165 -463 -25 -104 -73 -270 -105 -369 -91 -280 -133 -441 -145
-560 -3 -33 -8 -76 -10 -95 -3 -19 -7 -69 -10 -110 -3 -41 -8 -106 -11 -145
-4 -38 -8 -369 -10 -735 -1 -366 -4 -682 -5 -702 -1 -39 9 -157 16 -167 12
-21 31 -235 29 -333 -2 -92 -18 -307 -28 -387 -3 -20 -7 -58 -10 -86 -15 -147
-19 -184 -31 -272 -3 -24 -7 -61 -10 -83 -9 -70 -16 -124 -20 -150 -2 -14 -13
-83 -24 -155 -11 -71 -22 -143 -25 -160 -3 -16 -15 -85 -26 -152 -11 -67 -23
-132 -25 -145 -3 -13 -10 -52 -16 -88 -15 -99 -34 -168 -104 -380 -35 -107
-72 -233 -84 -280 -19 -79 -23 -113 -36 -260 -5 -61 -13 -122 -21 -160 -3 -14
-7 -74 -9 -133 -4 -97 -9 -121 -46 -220 -40 -108 -42 -116 -44 -244 -3 -151
-9 -167 -77 -205 -73 -40 -132 -143 -153 -268 -6 -36 -32 -73 -45 -65 -9 6 -2
78 12 125 6 19 26 66 46 105 44 88 60 135 67 193 4 32 19 65 46 104 57 84 56
85 -58 83 -123 -3 -153 -13 -283 -99 -86 -57 -233 -200 -376 -366 -158 -184
-234 -250 -394 -348 -190 -116 -242 -197 -315 -492 -8 -36 -43 -150 -77 -255
-34 -104 -62 -192 -63 -195 -1 -3 -26 -84 -57 -180 -31 -96 -73 -231 -94 -300
-20 -69 -58 -192 -84 -275 -27 -82 -53 -172 -59 -200 -40 -186 -26 -372 39
-494 55 -103 101 -140 426 -348 10 -7 53 -31 95 -52 70 -37 78 -39 98 -25 11
8 21 24 21 35 0 10 5 27 10 37 6 9 20 40 32 67 14 33 23 44 25 33 3 -10 -8
-44 -23 -75 -25 -53 -27 -68 -25 -161 1 -85 -2 -109 -19 -141 -25 -49 -64 -81
-101 -81 -81 0 -419 218 -550 354 -19 20 -39 14 -39 -11 0 -33 -13 -2 -15 35
-1 20 -3 42 -4 48 -2 17 -71 94 -84 94 -40 0 -67 -130 -63 -295 5 -176 15
-204 101 -290 79 -78 205 -173 300 -225 33 -18 80 -44 105 -58 25 -14 82 -44
127 -68 l83 -44 5222 1 c2873 0 5250 4 5283 9 151 22 383 39 533 40 l92 0 0
270 c0 211 -3 269 -12 265 -7 -2 -53 -6 -103 -10 -91 -6 -126 -9 -180 -19 -16
-3 -48 -8 -70 -11 -22 -3 -51 -8 -65 -11 -57 -10 -69 -13 -101 -18 -19 -3 -52
-8 -74 -11 -22 -3 -47 -8 -55 -10 -8 -3 -33 -7 -55 -10 -22 -4 -47 -8 -55 -10
-8 -2 -33 -7 -55 -10 -23 -3 -52 -8 -65 -10 -14 -3 -38 -8 -55 -10 -16 -3
-115 -21 -220 -40 -104 -19 -201 -36 -215 -39 -14 -2 -43 -7 -65 -11 -22 -4
-49 -9 -60 -11 -11 -2 -46 -9 -77 -14 -59 -11 -91 -17 -130 -24 -13 -2 -61
-11 -108 -20 -47 -8 -94 -17 -105 -19 -11 -2 -38 -9 -60 -15 -22 -6 -57 -13
-78 -16 -41 -5 -40 -1 1 43 19 20 -3 31 -39 21 -31 -9 -36 -6 -43 32 -6 37 16
63 79 92 60 27 72 41 26 31 -33 -7 -75 10 -65 26 23 38 419 142 734 193 19 3
71 12 115 20 44 8 143 26 220 40 77 15 151 28 165 31 14 3 39 7 55 10 17 3 41
8 55 10 49 10 73 14 193 35 67 11 142 25 167 30 25 5 57 12 73 14 15 3 53 9
85 15 31 5 71 12 87 15 17 3 39 7 50 9 11 3 39 8 63 12 l42 7 0 189 0 189 -30
0 c-45 0 -70 31 -71 88 -1 26 -3 56 -4 67 -1 11 -6 69 -10 128 -4 60 -8 128
-11 150 -2 23 -6 76 -9 117 -3 41 -8 93 -10 115 -2 22 -6 72 -10 110 -3 39 -8
88 -10 110 -2 22 -7 67 -10 100 -9 94 -30 261 -45 360 -5 33 -12 83 -16 110
-3 28 -8 59 -10 70 -2 11 -11 63 -20 115 -9 52 -24 131 -34 175 -11 45 -21 92
-24 105 -21 115 -102 391 -161 555 -64 180 -177 407 -276 555 -163 243 -172
252 -379 349 -86 41 -312 209 -318 238 -4 17 104 125 149 148 36 19 90 16 132
-6 54 -29 226 -134 307 -187 227 -151 416 -410 558 -768 100 -250 241 -732
289 -984 l18 -95 3 618 2 617 -26 63 c-50 118 -137 292 -191 381 -164 270
-343 437 -601 563 -74 36 -136 72 -139 79 -6 17 12 36 57 59 38 19 45 26 78
72 38 54 30 62 -40 41 -38 -11 -39 -13 -33 -44 5 -31 3 -34 -47 -59 -73 -37
-114 -68 -241 -188 -183 -172 -218 -192 -94 -53 39 44 75 84 80 87 4 3 18 20
32 39 22 30 23 35 10 54 -20 28 -20 30 19 44 19 7 51 32 71 55 20 23 52 59 71
80 35 40 44 67 20 67 -17 0 -71 -22 -160 -66 -37 -19 -72 -34 -77 -34 -28 0
19 101 55 118 12 5 48 15 79 22 37 7 57 16 57 26 0 14 -15 17 -75 16 -27 0
-188 -24 -240 -35 -11 -3 -40 -8 -65 -12 -25 -4 -52 -9 -60 -10 -8 -1 -35 -6
-60 -10 -25 -4 -54 -9 -65 -11 -76 -15 -100 -16 -88 -4 6 7 81 29 168 51 86
21 164 43 173 48 15 8 14 11 -10 20 -25 9 -89 8 -163 -4 -46 -7 -259 -18 -360
-18 -101 -1 -347 10 -385 17 -14 3 -47 7 -75 11 -86 11 -126 55 -49 55 74 0
32 34 -111 90 -60 24 -123 48 -140 55 -16 7 -89 37 -162 66 -73 29 -135 59
-138 68 -11 28 19 29 74 1 105 -52 341 -123 459 -136 57 -7 63 -2 30 27 l-23
18 25 1 c14 1 36 4 50 6 13 3 37 0 52 -7 15 -6 31 -8 37 -4 16 9 -46 59 -110
89 -60 29 -88 53 -122 106 -13 19 -31 37 -42 39 -16 3 -17 1 -8 -11 7 -8 8
-19 3 -27 -7 -12 -16 -10 -54 8 -41 19 -46 24 -40 46 8 31 -7 50 -58 76 -41
21 -85 59 -68 59 5 0 26 -9 47 -19 21 -10 56 -27 78 -37 22 -10 78 -43 125
-74 91 -60 120 -75 160 -84 18 -4 29 -15 35 -38 8 -25 25 -42 75 -72 152 -92
310 -167 382 -182 13 -2 56 -11 96 -19 40 -8 78 -17 85 -21 8 -5 9 -4 2 3 -11
12 -67 31 -112 39 -73 13 -202 94 -307 192 -75 69 -151 127 -216 164 -83 47
-124 86 -248 240 -55 69 -126 147 -157 174 -68 57 -128 134 -179 227 -60 110
-70 127 -145 247 -94 149 -185 331 -255 507 -82 204 -299 835 -309 898 -31
187 -90 398 -142 512 l-33 72 21 14 21 14 -21 29 c-58 82 -89 167 -137 379
-42 184 -58 232 -136 410 -176 397 -308 637 -469 853 -29 40 -50 76 -46 80 8
8 65 -56 65 -74 0 -6 19 -28 43 -49 23 -21 57 -51 75 -67 l32 -30 -10 28 c-53
138 -357 626 -401 643 -19 7 -222 185 -258 226 -101 117 -118 179 -19 70 33
-36 64 -65 69 -65 26 0 -2 36 -104 135 -247 239 -347 314 -677 507 -167 98
-187 106 -196 83 -7 -18 -2 -25 18 -29 54 -9 299 -150 376 -217 59 -50 67 -67
20 -40 -18 10 -109 62 -203 116 -132 75 -181 98 -218 102 -39 4 -46 2 -41 -11
3 -8 18 -17 32 -21 15 -3 50 -26 77 -51 83 -76 207 -188 225 -204 22 -19 188
-170 210 -190 8 -8 51 -46 94 -84 72 -65 115 -120 102 -133 -3 -3 -50 39 -104
94 -54 55 -141 134 -193 175 -114 92 -404 286 -439 295 -14 3 -51 22 -83 41
-50 31 -60 34 -83 23 -14 -6 -24 -17 -22 -24 3 -6 33 -30 69 -52 35 -22 82
-57 104 -79 l40 -39 -50 26 c-27 14 -77 42 -110 62 -63 38 -59 38 -182 19 -49
-7 -64 10 -45 52 14 29 -2 41 -85 70 -29 10 -53 24 -53 31 0 17 25 16 89 -3
139 -41 59 27 -89 75 -50 17 -128 37 -173 46 -135 25 -269 57 -263 62 3 3 59
5 125 4 67 -1 121 2 121 7 0 5 -25 14 -56 21 -30 7 -54 14 -52 16 2 2 34 6 72
9 38 3 71 8 75 11 5 6 -485 6 -491 0z m176 -15 c-20 -8 -98 -14 -119 -10 -17
4 58 17 100 18 31 1 36 -1 19 -8z m-887 -357 c-4 -3 -26 -15 -49 -25 -43 -19
-40 -7 4 17 24 14 56 20 45 8z m969 -3 c19 -8 24 -14 17 -21 -12 -12 -53 5
-53 21 0 12 2 12 36 0z m256 -139 c41 -22 61 -41 43 -41 -20 0 -205 103 -225
125 -26 29 -2 18 182 -84z m233 99 c4 -6 33 -24 65 -40 66 -33 100 -65 100
-92 0 -14 -19 -4 -82 42 -45 33 -84 60 -87 60 -4 0 -12 9 -19 20 -10 17 -10
20 2 20 8 0 18 -5 21 -10z m675 -15 c19 -14 27 -25 19 -25 -9 0 -26 11 -39 25
-13 14 -21 25 -19 25 3 0 20 -11 39 -25z m145 -100 c17 -14 25 -25 18 -25 -7
0 -25 11 -40 25 -36 32 -17 32 22 0z m200 -29 c56 -44 79 -65 74 -70 -2 -2
-40 23 -84 56 -44 34 -69 57 -55 53 14 -4 43 -22 65 -39z m-1005 -123 c0 -3
-10 1 -22 9 -13 8 -33 21 -45 29 -13 8 -23 17 -23 22 0 4 20 -6 45 -23 25 -17
45 -34 45 -37z m925 56 c11 -17 -1 -21 -15 -4 -8 9 -8 15 -2 15 6 0 14 -5 17
-11z m125 -100 c7 -13 7 -19 0 -19 -5 0 -10 5 -10 10 0 6 -5 10 -12 10 -17 0
-48 31 -48 47 0 18 55 -19 70 -48z m-905 -66 c29 -26 78 -93 67 -93 -11 0
-122 110 -122 121 0 11 25 -2 55 -28z m1004 -11 c23 -24 30 -37 22 -40 -7 -2
-34 17 -60 43 -39 40 -42 46 -21 40 14 -4 40 -23 59 -43z m-2019 -66 c54 -14
146 -14 220 0 117 23 318 -6 530 -76 137 -44 209 -80 308 -149 94 -67 155
-130 253 -260 44 -58 103 -130 131 -159 51 -53 137 -104 199 -117 33 -7 64
-47 56 -70 -4 -8 -21 -18 -39 -23 -23 -6 -42 -22 -61 -50 -24 -36 -48 -52
-165 -110 -170 -84 -248 -136 -333 -222 -64 -64 -68 -72 -102 -176 -21 -67
-32 -113 -26 -120 5 -6 34 -10 64 -8 51 2 62 7 133 61 263 201 453 344 489
368 108 70 223 -5 228 -150 3 -81 -19 -108 -103 -126 -124 -25 -268 -81 -335
-130 -41 -30 -71 -37 -82 -19 -12 19 -35 10 -64 -23 -20 -22 -40 -33 -60 -35
-32 -2 -41 14 -20 35 17 17 2 33 -30 33 -38 0 -51 -17 -51 -67 0 -23 -9 -66
-21 -95 -60 -153 32 -252 231 -250 115 1 128 -9 57 -44 -82 -39 -86 -48 -35
-70 32 -14 73 -19 160 -20 135 -3 188 7 188 36 0 26 -31 41 -96 45 -30 3 -59
7 -64 10 -12 7 -13 35 -2 36 39 3 113 16 145 24 4 2 18 3 31 4 22 1 25 6 28
43 3 42 4 43 53 56 28 8 59 23 71 33 12 11 66 31 125 45 57 14 119 34 137 45
43 25 71 24 102 -4 46 -40 538 -757 568 -827 8 -19 15 -58 14 -87 0 -80 -42
-145 -50 -78 -6 50 -71 56 -73 6 -2 -94 -46 -171 -96 -171 -13 0 -63 13 -111
29 -49 16 -110 32 -138 35 -74 10 -94 16 -154 46 -30 15 -100 42 -155 60 -55
18 -122 45 -150 59 -28 14 -68 26 -90 26 -22 1 -46 4 -53 9 -8 4 -10 2 -6 -7
3 -8 1 -18 -4 -21 -9 -5 1 -34 46 -126 13 -26 34 -44 82 -69 36 -18 106 -58
155 -87 50 -30 96 -54 104 -54 28 0 78 -32 94 -60 21 -35 28 -96 14 -130 -16
-38 -55 -69 -122 -98 -88 -38 -195 -94 -256 -134 -30 -19 -75 -47 -101 -61
-26 -15 -49 -36 -53 -46 -3 -10 -19 -24 -35 -31 -43 -18 -180 -6 -239 21 -76
34 -108 28 -265 -49 -244 -119 -365 -158 -465 -147 -36 4 -80 8 -97 10 -17 2
-54 -5 -82 -14 -50 -17 -50 -17 -45 3 3 12 8 39 10 61 7 54 18 66 58 59 33 -5
34 -4 26 23 -5 16 -18 48 -30 71 l-22 42 28 28 c21 20 28 37 29 67 0 30 5 41
18 43 10 2 16 0 13 -5 -9 -15 58 -103 78 -103 5 0 21 16 35 35 29 40 45 48 68
36 45 -23 136 -22 232 4 96 26 158 25 200 -3 30 -20 146 -22 201 -3 57 19 73
42 65 93 -4 24 -8 50 -9 59 -1 16 -5 17 -77 4 -23 -4 -52 14 -83 51 -37 45
-82 57 -186 52 -69 -3 -96 -9 -127 -27 -75 -45 -99 -57 -144 -71 -25 -7 -49
-17 -55 -20 -21 -15 -76 -19 -100 -8 -28 13 -50 54 -65 123 -16 73 -40 145
-50 145 -18 0 -141 -297 -174 -420 -48 -182 -54 -199 -89 -272 -20 -40 -49
-91 -66 -112 -17 -21 -31 -46 -32 -55 -1 -9 -3 -40 -4 -69 -2 -32 0 -50 6 -46
5 3 31 -8 58 -25 41 -27 54 -30 93 -25 59 8 98 -23 104 -81 3 -22 12 -46 22
-53 48 -36 109 -22 119 29 8 40 28 47 57 20 13 -12 31 -23 42 -25 103 -19 136
-15 157 20 4 8 19 11 40 8 41 -7 89 33 80 66 -6 24 -12 27 -63 34 -40 6 -60
28 -60 68 0 36 14 35 52 -2 l30 -30 -2 33 c-4 76 -6 74 69 80 40 3 97 17 133
32 35 14 114 39 177 55 93 23 126 37 180 74 37 26 106 62 155 81 48 19 123 54
165 78 121 69 164 83 207 73 23 -6 34 -35 38 -101 5 -71 34 -73 78 -5 59 89
119 91 203 6 64 -64 75 -101 69 -224 -4 -83 -1 -104 18 -152 12 -30 28 -62 35
-71 7 -8 13 -34 13 -57 0 -23 9 -56 21 -76 23 -40 25 -64 15 -236 -12 -219
-32 -308 -93 -407 -115 -190 -290 -295 -528 -318 -287 -28 -450 -26 -589 5
-149 33 -360 127 -523 233 -90 58 -183 140 -183 160 0 4 -15 14 -32 22 -38 16
-73 5 -133 -41 -20 -15 -38 -24 -41 -21 -3 3 -7 29 -10 58 -10 107 -11 116
-19 128 -5 9 -16 4 -39 -18 -46 -45 -96 -58 -211 -56 -138 2 -178 22 -356 175
-187 161 -264 271 -383 550 -115 268 -172 372 -316 580 -47 69 -96 146 -108
172 -22 49 -56 165 -67 228 -26 162 -27 567 0 755 48 343 54 630 18 875 -10
68 -8 163 5 187 11 20 138 454 146 498 2 11 8 38 14 60 6 22 14 65 17 95 9 67
25 109 54 134 11 11 21 16 21 13 0 -15 173 58 285 120 178 98 184 101 265 126
85 27 168 28 260 3z m2254 -150 c88 -87 142 -150 163 -189 53 -98 22 -76 -109
78 -127 149 -148 174 -185 214 -18 19 -33 35 -33 37 0 16 52 -29 164 -140z
m-204 24 c0 -5 -4 -10 -10 -10 -5 0 -10 5 -10 10 0 6 5 10 10 10 6 0 10 -4 10
-10z m320 -372 c24 -40 45 -76 47 -80 2 -5 0 -8 -5 -8 -16 0 -114 138 -107
150 12 20 23 9 65 -62z m230 -68 c28 -30 48 -85 36 -97 -6 -7 -11 -1 -65 73
-28 39 -31 54 -8 54 5 0 22 -14 37 -30z m-36 -240 c40 -63 81 -131 92 -150 10
-19 24 -42 30 -50 10 -14 27 -44 104 -185 24 -43 87 -155 161 -283 11 -18 19
-43 19 -55 0 -22 -1 -22 -20 3 -11 14 -20 28 -20 31 0 3 -31 59 -68 125 -38
65 -82 144 -99 174 -87 155 -186 325 -239 410 -33 52 -63 104 -67 114 -18 46
36 -21 107 -134z m-723 -649 l24 -19 -28 -11 c-16 -6 -40 -11 -54 -11 -14 0
-81 -19 -149 -42 -68 -23 -126 -39 -130 -35 -13 13 24 53 73 80 101 54 222 72
264 38z m631 -257 c73 -102 140 -195 148 -207 8 -12 72 -103 143 -202 111
-157 148 -227 120 -224 -22 1 -178 209 -261 346 -34 55 -104 166 -156 246
-117 179 -145 227 -132 227 2 0 64 -84 138 -186z m618 -48 c118 -221 163 -319
218 -478 33 -94 42 -135 46 -210 7 -137 12 -155 47 -162 36 -7 50 -38 49 -110
0 -28 1 -113 3 -189 2 -76 0 -140 -4 -142 -16 -10 -59 127 -74 235 -3 25 -8
56 -10 70 -2 14 -7 45 -10 70 -11 74 -13 81 -45 195 -53 184 -53 187 -24 194
19 6 20 8 7 39 -11 28 -16 31 -32 22 -17 -9 -20 -4 -31 58 -12 72 -51 153
-139 288 -48 75 -53 87 -57 155 -3 41 -4 72 -1 69 2 -3 28 -49 57 -104z
m-1245 4 c-37 -39 -117 -78 -174 -85 -27 -3 -53 -14 -64 -26 -15 -16 -22 -18
-31 -9 -8 8 -6 15 8 26 11 8 26 14 33 14 15 0 48 14 173 74 41 20 77 36 79 36
3 0 -8 -14 -24 -30z m1555 -745 c0 -8 -2 -15 -4 -15 -2 0 -6 7 -10 15 -3 8 -1
15 4 15 6 0 10 -7 10 -15z m-481 -343 c-1 -26 -4 -58 -8 -72 l-7 -25 -8 24
c-10 28 -10 107 -1 122 13 20 25 -4 24 -49z m-7 -179 c10 -17 13 -34 9 -42 -6
-9 -16 -1 -34 30 -14 23 -23 47 -21 51 7 12 25 -4 46 -39z m-14 -92 c-14 -5
-39 29 -32 41 3 4 14 -2 24 -14 11 -14 14 -24 8 -27z m-193 -90 c-9 -27 -23
-55 -31 -61 -7 -7 -14 -21 -14 -32 0 -17 7 -19 58 -18 80 2 79 2 85 -21 8 -30
-2 -49 -25 -49 -10 0 -17 4 -14 9 3 5 -2 15 -11 22 -15 13 -16 11 -9 -15 5
-20 2 -34 -9 -46 -15 -17 -22 -37 -24 -68 -1 -10 -4 -10 -16 1 -8 9 -29 18
-45 22 -21 5 -39 19 -56 46 -51 82 -40 131 46 193 27 20 50 40 50 45 0 5 5 22
12 38 11 27 12 27 16 5 2 -12 -4 -45 -13 -71z m208 24 c-3 -9 -8 -14 -10 -11
-3 3 -2 9 2 15 9 16 15 13 8 -4z m-2243 -119 c0 -3 -4 -8 -10 -11 -5 -3 -10
-1 -10 4 0 6 5 11 10 11 6 0 10 -2 10 -4z m2796 -41 c8 -20 -16 -49 -29 -36
-11 11 0 51 14 51 5 0 12 -7 15 -15z m-4238 -570 c-6 -14 -13 -23 -16 -21 -7
7 9 46 18 46 5 0 4 -11 -2 -25z m1362 -77 c13 -16 15 -27 8 -35 -16 -20 -46 5
-40 33 5 30 9 30 32 2z m2035 -44 c17 -13 18 -16 5 -24 -26 -16 -40 -11 -40
15 0 29 7 30 35 9z m-4127 -450 l-3 -49 -14 42 c-14 44 -8 84 10 66 6 -6 9
-32 7 -59z m26 -179 l7 -60 -19 50 c-10 28 -16 58 -14 68 8 31 20 5 26 -58z
m2943 -1026 c106 -45 116 -48 186 -54 55 -4 77 -18 72 -44 -2 -10 10 -38 26
-62 16 -24 29 -51 29 -59 -1 -36 -65 -80 -110 -75 -14 1 -30 3 -37 4 -6 0 -25
13 -42 27 -30 25 -31 25 -61 7 -18 -10 -28 -23 -25 -31 11 -30 17 -62 11 -62
-20 0 -97 43 -105 58 -5 9 -12 36 -16 59 -4 24 -17 58 -30 77 -25 37 -23 46
11 46 24 0 35 17 29 46 -2 11 -4 23 -4 27 -1 5 -11 5 -22 2 -14 -5 -19 -3 -15
3 3 6 2 21 -3 35 -9 22 -6 37 6 37 2 0 47 -18 100 -41z m-177 -195 c0 -6 -6
-17 -14 -23 -11 -9 -16 -5 -25 20 -19 54 -14 66 14 39 14 -13 25 -29 25 -36z
m-100 22 c0 -2 -7 -6 -15 -10 -8 -3 -15 -1 -15 4 0 6 7 10 15 10 8 0 15 -2 15
-4z m664 -126 c7 -24 6 -24 -8 -6 -9 11 -16 27 -16 35 0 21 16 2 24 -29z
m-449 -11 c5 -5 0 -9 -14 -9 -12 0 -30 8 -39 17 -16 15 -15 16 13 9 17 -4 34
-12 40 -17z m4421 -94 c-66 -23 -96 -27 -51 -5 22 10 51 19 65 19 20 0 17 -3
-14 -14z m74 -24 c0 -12 -131 -93 -139 -86 -3 4 1 10 9 15 8 5 38 25 65 44 53
36 65 41 65 27z m-846 -378 c-10 -7 -29 -13 -43 -14 -14 0 -33 -2 -41 -4 -8
-2 -31 -6 -50 -9 -19 -4 -57 -11 -85 -16 -73 -14 -130 -21 -224 -25 -71 -3
-82 -2 -70 10 8 7 34 16 59 19 25 3 65 8 90 12 25 3 56 7 69 9 13 3 45 7 70
11 25 3 57 8 71 10 14 2 50 7 80 10 30 3 56 7 58 9 2 2 11 1 19 -2 14 -5 13
-8 -3 -20z m250 -34 c-7 -11 -34 -12 -34 -1 0 14 11 21 26 15 8 -3 11 -9 8
-14z m199 -619 c26 -16 49 -30 52 -30 2 0 31 -18 64 -40 68 -45 211 -118 284
-145 41 -16 53 -27 91 -89 74 -120 153 -279 232 -462 109 -253 209 -613 254
-919 7 -44 13 -87 15 -95 2 -8 8 -51 15 -95 6 -44 13 -91 15 -105 10 -66 32
-246 41 -330 33 -328 35 -648 5 -912 -3 -24 -48 -47 -104 -52 -34 -4 -86 -14
-115 -24 -92 -29 -87 -53 -88 394 -1 346 -5 497 -19 629 -16 151 -25 220 -41
320 -8 50 -17 104 -19 120 -3 17 -10 55 -16 85 -6 30 -12 60 -13 65 -48 243
-144 596 -223 810 -31 86 -116 258 -151 305 -64 88 -124 128 -334 224 -70 32
-115 70 -132 110 -32 80 54 266 123 266 10 0 38 -13 64 -30z m-1683 -29 c0
-12 -23 -18 -100 -26 -30 -3 -66 -7 -80 -9 -14 -3 -68 -10 -120 -16 -52 -6
-106 -13 -120 -15 -14 -2 -52 -6 -85 -10 -33 -3 -67 -8 -75 -10 -8 -2 -42 -6
-75 -10 -33 -3 -80 -8 -105 -12 -80 -10 -94 -11 -160 -18 -117 -13 -153 -25
-56 -19 50 3 97 7 105 9 15 3 89 10 196 21 28 2 66 7 85 9 19 3 64 7 100 10
36 3 83 8 105 10 22 3 63 7 90 11 112 13 136 14 285 18 183 5 257 -3 276 -29
26 -35 -5 -48 -146 -59 -25 -2 -61 -7 -80 -10 -19 -3 -66 -8 -105 -11 -68 -6
-107 -10 -190 -20 -22 -2 -71 -7 -110 -11 -119 -11 -119 -25 0 -18 61 3 128 7
150 9 22 2 83 7 135 10 52 3 111 8 130 10 19 2 84 6 145 10 60 3 112 7 115 7
25 2 43 -3 35 -11 -6 -5 -41 -12 -80 -15 -38 -4 -86 -8 -105 -11 -19 -2 -60
-7 -90 -10 -30 -3 -71 -8 -90 -10 -19 -2 -60 -7 -90 -10 -30 -4 -66 -8 -80
-10 -14 -2 -50 -6 -80 -9 -30 -3 -64 -8 -75 -10 -11 -2 -47 -7 -80 -10 -33 -4
-71 -9 -85 -11 -14 -2 -50 -6 -80 -10 -30 -4 -66 -8 -80 -10 -34 -5 -104 -13
-165 -20 -27 -3 -61 -8 -75 -10 -14 -2 -52 -6 -85 -10 -33 -3 -73 -8 -90 -10
-16 -2 -59 -6 -95 -10 -36 -4 -76 -8 -90 -10 -14 -2 -59 -7 -100 -10 -41 -3
-91 -8 -110 -10 -19 -3 -75 -7 -123 -10 -48 -3 -104 -8 -125 -10 -77 -7 -373
-18 -532 -18 -233 -1 -595 25 -634 45 -18 10 -18 11 -2 20 10 6 58 10 107 10
49 0 91 3 94 8 5 8 -92 33 -172 45 -39 6 -43 9 -43 35 0 48 15 52 171 45 79
-4 150 -8 159 -10 9 -2 23 0 30 5 17 10 -5 17 -85 26 -33 3 -63 8 -66 10 -4 2
-28 6 -55 10 -80 9 -115 18 -114 29 1 14 231 6 290 -10 96 -25 702 -25 885 0
27 4 58 7 186 20 67 6 164 17 179 20 8 2 51 6 95 11 44 4 82 8 85 9 3 1 39 5
80 9 41 5 82 10 90 11 8 2 44 6 80 10 36 3 76 8 90 10 14 2 53 7 87 10 34 3
70 7 80 9 10 2 47 7 83 11 36 3 76 8 90 10 210 30 470 44 470 26z m-3094 -120
c20 -1 34 -7 38 -17 7 -17 -26 -17 -221 3 -106 10 -72 25 45 19 59 -3 121 -5
138 -5z m4205 -34 c-5 -5 -17 -7 -26 -3 -13 5 -14 10 -4 28 11 21 12 21 25 3
9 -12 11 -22 5 -28z m-58 -17 c45 -30 62 -60 34 -60 -7 0 -42 11 -76 25 -35
13 -82 27 -104 31 -85 12 -70 28 30 32 62 3 72 0 116 -28z m-4153 -25 c19 -2
43 -4 53 -4 27 -1 57 -38 57 -70 0 -36 -9 -39 -100 -35 -190 8 -308 15 -337
20 -30 6 -73 36 -73 52 0 15 25 40 45 46 20 5 285 -1 355 -9z m-90 -129 c115
-7 179 -15 192 -22 3 -2 4 -13 1 -25 -6 -22 -18 -22 -238 -3 -33 3 -84 6 -113
8 -62 4 -86 20 -60 40 18 13 28 13 218 2z m-3700 -31 c-7 -8 -17 -15 -22 -15
-6 0 -5 7 2 15 7 8 17 15 22 15 6 0 5 -7 -2 -15z m493 -49 c6 -15 3 -40 -14
-116 -6 -25 -13 -56 -15 -70 -3 -14 -9 -41 -14 -60 -5 -19 -12 -53 -16 -75
-13 -85 -47 -100 -52 -24 -3 40 21 149 38 174 8 12 17 46 26 101 3 21 7 44 8
49 5 32 30 45 39 21z m-269 -151 c6 -17 -6 -26 -129 -89 -96 -49 -140 -61 -91
-23 38 29 199 127 207 127 4 0 9 -7 13 -15z m7688 -71 c36 -19 48 -44 64 -134
8 -41 16 -84 18 -96 5 -25 -2 -38 -29 -51 -21 -10 -28 -10 -190 2 -175 14
-517 9 -725 -10 -25 -2 -78 -7 -118 -10 -40 -4 -81 -8 -90 -9 -9 -2 -48 -7
-87 -11 -38 -4 -77 -8 -85 -10 -8 -1 -42 -6 -75 -11 -33 -4 -62 -8 -65 -9 -3
0 -32 -4 -65 -9 -33 -4 -71 -9 -85 -11 -14 -2 -81 -11 -150 -20 -69 -9 -136
-18 -150 -20 -14 -2 -52 -6 -85 -10 -33 -3 -67 -7 -75 -10 -8 -2 -46 -6 -85
-10 -38 -3 -83 -8 -100 -10 -49 -7 -225 -24 -305 -31 -41 -3 -86 -7 -100 -9
-14 -2 -72 -7 -130 -10 -58 -4 -121 -8 -140 -10 -57 -5 -408 -18 -505 -18 -93
0 -395 11 -500 18 -33 3 -80 5 -105 5 -25 1 -60 6 -78 12 -32 10 -33 11 -16
29 11 12 14 23 8 31 -5 7 -9 20 -8 28 1 8 2 20 3 27 0 6 17 30 36 53 19 23 38
52 41 65 8 32 30 35 169 29 260 -13 860 -7 1010 11 17 2 73 6 125 10 52 3 109
7 125 9 17 2 66 6 110 10 44 4 96 8 115 11 19 2 67 7 105 10 39 4 86 8 105 10
19 2 64 6 100 10 36 3 76 8 90 10 14 2 48 7 75 9 28 3 75 8 105 11 30 3 71 8
90 10 67 9 153 19 245 29 28 4 68 8 90 11 22 2 56 7 75 10 19 3 55 7 80 10 51
4 132 14 170 20 14 2 57 7 95 11 39 3 72 8 75 9 4 2 51 7 105 11 55 3 101 8
103 9 1 1 134 2 295 2 231 1 298 -2 319 -13z m-7822 -129 c-13 -14 -26 -23
-28 -20 -7 7 29 45 41 45 6 0 0 -11 -13 -25z m8087 -32 c12 -31 8 -94 -7 -103
-8 -6 -30 -10 -49 -10 -27 0 -32 -3 -28 -17 19 -60 19 -60 -2 -66 -27 -7 -35
21 -29 110 3 54 8 69 27 84 29 24 79 25 88 2z m213 5 c37 1 61 -33 70 -98 9
-61 12 -68 62 -115 29 -27 75 -69 102 -91 35 -29 47 -46 43 -58 -13 -32 -49
-13 -161 87 -11 9 -27 17 -35 17 -9 0 21 -35 65 -78 l81 -77 -2 -50 c-1 -28 4
-70 12 -95 17 -56 94 -356 99 -390 2 -14 7 -36 10 -50 6 -26 7 -31 24 -130 6
-33 12 -72 15 -87 3 -16 10 -66 15 -113 6 -47 13 -98 15 -115 6 -41 13 -131
21 -245 8 -122 8 -487 0 -616 -4 -54 -9 -130 -11 -167 -7 -115 -32 -135 -197
-157 -118 -16 -132 -10 -123 54 3 23 8 57 10 76 16 120 34 973 21 1010 -3 8
-8 32 -11 53 -13 90 -19 118 -56 261 -111 422 -111 419 -84 483 8 20 33 55 55
79 45 49 44 64 -5 94 -46 28 -101 92 -127 146 -19 37 -20 48 -10 64 18 29 15
41 -23 89 -26 32 -34 51 -31 70 2 14 5 31 5 38 1 14 51 29 124 38 38 5 48 10
45 23 -2 9 -7 16 -11 16 -4 -1 -37 -7 -73 -14 -56 -11 -68 -10 -80 2 -17 17
-9 45 14 51 10 2 40 2 67 -1 28 -2 57 -4 65 -4z m-8590 -23 c0 -3 -23 -16 -50
-29 -57 -27 -58 -16 -2 14 38 20 52 24 52 15z m3420 -16 c0 -5 -7 -9 -15 -9
-15 0 -20 12 -9 23 8 8 24 -1 24 -14z m215 -5 c33 -6 90 -13 118 -13 29 -1 19
-20 -15 -26 -47 -9 -66 -9 -128 -1 -123 15 -150 23 -150 43 0 13 10 15 73 9
39 -3 86 -9 102 -12z m-3050 -13 c3 -5 1 -12 -5 -16 -5 -3 -10 1 -10 9 0 18 6
21 15 7z m3374 -15 c17 -20 -8 -36 -52 -33 -43 4 -52 10 -44 32 8 19 80 21 96
1z m-4349 -5 c0 -13 -13 -21 -53 -31 l-32 -9 30 24 c31 26 55 32 55 16z m445
-28 c-13 -54 -13 -61 0 -67 8 -3 22 5 32 17 10 12 34 34 53 47 l35 24 -25 -31
c-113 -143 -220 -282 -248 -321 -62 -89 -172 -253 -172 -256 0 -2 -18 -30 -39
-62 -66 -100 -196 -317 -208 -349 -12 -29 -39 -126 -49 -174 -9 -42 -31 -88
-54 -109 -19 -17 -32 -20 -83 -16 -33 2 -72 11 -85 20 -32 21 -25 55 32 151
43 72 74 140 157 338 115 277 192 393 369 555 57 52 140 132 184 176 87 88
113 102 101 57z m3465 1 c181 -12 270 -36 270 -73 0 -13 -12 -27 -31 -37 -29
-15 -31 -18 -25 -55 7 -46 5 -47 -79 -35 -22 3 -64 8 -94 11 -30 4 -62 8 -72
10 -9 2 -39 7 -66 11 -64 9 -88 21 -74 38 8 10 23 11 52 6 23 -4 53 -5 66 -1
24 6 25 8 8 24 -12 13 -26 16 -50 11 -63 -11 -102 34 -70 82 13 21 22 24 48
19 18 -3 70 -8 117 -11z m428 -52 c19 -25 14 -51 -13 -77 -20 -18 -24 -29 -19
-50 11 -43 -41 -62 -82 -30 -19 15 -19 15 5 35 22 19 23 22 7 38 -29 33 -17
76 29 100 24 13 55 6 73 -16z m-3316 -17 c3 -3 -1 -49 -9 -103 -7 -53 -16
-115 -18 -137 -9 -68 -11 -79 -23 -83 -7 -2 -10 3 -6 12 9 25 -5 86 -20 86 -8
0 -17 -11 -20 -25 -4 -14 -11 -25 -16 -25 -5 0 -2 18 7 41 14 37 14 44 1 73
-19 39 -11 57 44 105 21 18 37 36 37 39 -3 20 10 30 23 17z m-297 -221 c-8
-16 -15 -23 -15 -16 0 17 20 55 26 49 2 -2 -2 -17 -11 -33z m168 -212 c-20
-17 -38 -31 -39 -29 -2 2 6 29 18 60 l21 57 18 -27 18 -28 -36 -33z m7554 33
c50 -7 100 -16 111 -19 12 -4 33 -34 52 -72 30 -63 31 -70 23 -137 l-8 -71
-415 -3 c-228 -1 -431 -4 -450 -6 -19 -3 -80 -8 -135 -11 -55 -4 -118 -9 -140
-11 -22 -2 -71 -7 -110 -10 -38 -4 -83 -8 -100 -10 -16 -2 -57 -7 -90 -10
-105 -10 -360 -41 -415 -50 -14 -2 -47 -7 -75 -10 -27 -4 -61 -8 -75 -10 -14
-2 -47 -7 -75 -10 -27 -4 -57 -8 -65 -10 -8 -2 -40 -7 -70 -10 -30 -3 -66 -8
-80 -10 -14 -3 -45 -7 -70 -9 -63 -7 -147 -15 -200 -21 -41 -5 -136 -13 -230
-19 -279 -21 -855 -28 -1105 -13 -514 30 -520 32 -485 172 23 95 35 122 60
135 15 8 69 9 178 5 86 -4 198 -9 247 -11 332 -13 839 0 1225 32 147 12 177
14 215 19 22 2 72 7 110 10 39 4 81 8 95 10 14 2 45 6 70 10 52 6 183 25 220
30 14 2 45 7 70 10 25 3 59 8 75 11 48 8 75 12 160 24 44 7 87 13 95 15 8 1
44 6 80 10 36 4 72 9 80 10 8 2 44 6 80 10 36 3 81 8 100 10 49 6 181 14 340
21 74 3 136 7 138 8 9 10 491 2 569 -9z m-5604 -64 c17 -6 17 -8 4 -20 -34
-27 -132 -15 -120 15 6 15 83 18 116 5z m-36 -72 c23 -20 14 -37 -39 -79 -29
-22 -80 -63 -113 -90 -56 -48 -76 -59 -74 -42 4 24 -4 30 -43 30 -146 -2 -176
2 -181 22 -6 22 7 28 66 32 44 3 52 10 38 36 -15 29 5 49 74 73 101 36 239 44
272 18z m956 -6 c125 -6 137 -18 75 -75 -25 -24 -48 -53 -52 -65 -11 -36 -35
-53 -71 -53 -25 0 -40 8 -64 35 -35 40 -36 44 -18 68 21 28 67 29 114 1 40
-23 43 -24 43 -6 0 27 -23 43 -67 49 -52 6 -103 23 -103 33 0 12 33 30 43 23
5 -3 50 -7 100 -10z m393 -58 c24 -24 28 -44 24 -130 -4 -98 -38 -155 -92
-155 -18 0 -57 6 -87 14 -31 8 -87 19 -125 24 -45 7 -76 18 -89 30 -26 27 -14
42 28 35 19 -3 35 -4 35 -2 0 2 -4 20 -10 39 -9 33 -8 36 33 73 98 89 105 93
200 95 50 1 62 -2 83 -23z m-3652 -77 c8 -14 5 -23 -18 -47 -32 -33 -58 -115
-46 -146 4 -11 6 -36 4 -55 -4 -37 -30 -65 -130 -143 -49 -39 -49 -39 -55 -15
-15 57 22 148 129 310 76 117 93 131 116 96z m-799 -128 c-6 -9 -9 -9 -16 1
-10 17 0 34 13 21 6 -6 7 -16 3 -22z m2755 -60 c-19 -17 -39 -30 -45 -30 -5 0
6 14 25 30 19 16 40 29 45 29 6 0 -6 -13 -25 -29z m-1504 -75 c-5 -58 -12 -78
-25 -71 -11 7 9 126 21 126 5 0 7 -24 4 -55z m1394 -10 c0 -2 -10 -9 -22 -15
-22 -11 -22 -10 -4 4 21 17 26 19 26 11z m6274 -234 c21 -18 6 -37 -35 -46
-35 -8 -30 -21 11 -30 32 -7 39 -14 45 -46 6 -33 -9 -52 -50 -64 -39 -11 -48
-28 -16 -33 24 -4 34 -27 17 -41 -12 -10 -54 -14 -276 -26 -58 -4 -134 -8
-170 -10 -36 -2 -116 -7 -179 -10 -63 -3 -133 -8 -155 -10 -23 -2 -88 -7 -146
-10 -58 -3 -118 -8 -135 -10 -16 -2 -75 -7 -129 -10 -55 -4 -107 -8 -116 -10
-9 -2 -55 -6 -102 -9 -47 -4 -95 -8 -106 -11 -12 -2 -54 -6 -94 -9 -40 -4 -82
-8 -93 -10 -11 -2 -58 -7 -104 -11 -47 -4 -92 -8 -100 -10 -9 -1 -47 -6 -86
-9 -38 -4 -81 -9 -95 -11 -14 -2 -65 -7 -115 -11 -49 -4 -97 -8 -105 -9 -8 -1
-58 -5 -110 -9 -52 -4 -111 -9 -130 -11 -55 -7 -268 -18 -580 -31 -468 -20
-1142 -3 -1248 30 -19 7 -52 56 -52 79 0 8 -18 30 -39 49 -26 23 -38 41 -36
54 2 10 4 32 4 47 1 16 12 39 26 53 24 24 27 24 127 18 57 -3 119 -7 138 -9
219 -23 986 -23 1315 0 28 2 97 6 155 10 58 3 123 8 145 10 22 2 72 6 110 10
119 10 179 16 215 20 19 3 58 7 85 10 64 6 140 14 185 20 19 3 53 7 75 9 22 3
58 8 80 10 149 19 223 27 265 31 19 2 58 5 85 9 28 3 79 8 115 12 36 3 76 7
91 9 14 2 70 6 125 10 54 4 115 8 134 10 19 2 109 7 200 10 91 4 166 9 168 10
2 2 153 2 337 1 260 -2 337 -5 349 -15z m-6349 -26 c22 -8 38 -15 35 -16 -5
-2 -96 -8 -144 -9 -50 -2 -50 17 0 26 16 3 31 7 33 10 8 8 36 4 76 -11z
m-1371 -29 c-3 -9 -10 -13 -16 -10 -5 3 -4 12 3 20 15 18 22 13 13 -10z m2177
7 c15 -15 -14 -83 -52 -123 -23 -23 -54 -43 -78 -50 -31 -8 -45 -20 -65 -54
-29 -49 -45 -56 -119 -50 -71 7 -123 21 -142 40 -20 20 -16 24 25 29 18 3 35
7 38 9 2 3 -10 22 -28 42 l-32 37 37 20 c21 10 70 24 109 31 64 10 71 14 74
36 6 48 5 48 117 45 59 -2 111 -7 116 -12z m335 -48 c45 -18 102 -72 127 -119
15 -30 21 -58 20 -105 0 -81 -11 -91 -90 -80 -32 4 -83 10 -113 14 -56 6 -100
11 -170 20 -148 18 -166 25 -150 55 5 10 22 20 37 22 23 2 29 10 38 45 5 23
19 51 29 62 22 24 71 40 109 36 32 -4 42 8 22 25 -18 15 -19 37 -2 43 18 8
108 -4 143 -18z m-3723 -5 c32 -16 34 -37 8 -88 -24 -47 -33 -89 -46 -202 -4
-36 -25 -112 -46 -170 -20 -58 -54 -163 -75 -235 -21 -71 -43 -136 -50 -144
-11 -12 -21 -8 -64 25 -27 21 -62 55 -75 74 l-25 36 54 160 c29 87 79 238 110
334 64 198 73 217 95 224 25 7 83 0 114 -14z m2567 -8 c0 -20 -26 -47 -74 -76
-20 -13 -51 -18 -103 -20 -91 -1 -113 6 -113 37 0 34 37 49 74 30 33 -17 82
-6 126 28 33 25 90 26 90 1z m-1995 -79 c2 -54 -6 -132 -18 -178 -3 -11 -17
-69 -31 -130 -41 -175 -54 -212 -126 -356 -72 -143 -96 -209 -106 -299 -7 -64
-10 -70 -30 -70 -11 0 -14 9 -10 40 l4 40 -30 -25 c-16 -14 -33 -25 -37 -25
-25 0 -71 24 -76 39 -3 10 9 56 26 102 88 238 118 332 155 499 31 134 29 126
53 203 11 37 36 102 56 144 l36 78 19 -22 c10 -13 20 -23 23 -23 3 0 20 14 37
30 42 39 53 29 55 -47z m919 -25 c-4 -29 -7 -57 -6 -61 2 -5 -2 -6 -7 -3 -5 3
-8 12 -7 19 2 6 6 34 11 60 4 26 10 46 12 43 3 -3 2 -29 -3 -58z m2770 46 c24
-23 10 -34 -44 -34 -48 0 -87 21 -75 41 10 16 102 11 119 -7z m-20 -74 c32
-12 33 -30 2 -59 -36 -34 -70 -25 -74 18 -5 47 20 61 72 41z m-1964 -75 c-10
-12 -15 -13 -21 -3 -11 17 11 42 24 29 7 -7 6 -15 -3 -26z m1846 1 c18 -28 46
-126 36 -126 -7 0 -62 128 -62 143 0 13 9 7 26 -17z m260 2 c7 -5 14 -22 18
-39 3 -16 17 -45 31 -64 25 -31 25 -34 8 -43 -20 -10 -57 -7 -120 9 -49 13
-51 18 -23 42 14 12 20 29 20 61 0 54 24 66 66 34z m4622 -298 c12 -58 39
-193 61 -300 34 -163 39 -197 27 -208 -19 -20 -42 7 -51 60 -8 50 -21 78 -36
78 -6 0 -8 -4 -4 -9 3 -6 7 -29 10 -53 2 -24 11 -67 19 -97 15 -55 11 -86 -16
-109 -21 -17 -35 17 -42 95 -12 145 -71 172 -271 123 -98 -23 -117 -28 -154
-35 -14 -2 -47 -9 -75 -15 -94 -19 -90 -18 -256 -45 -55 -9 -252 -33 -320 -40
-30 -3 -75 -8 -100 -11 -47 -5 -87 -8 -255 -19 -55 -3 -125 -8 -155 -10 -30
-2 -127 -7 -215 -10 -88 -3 -189 -8 -225 -10 -36 -2 -117 -7 -180 -10 -63 -3
-146 -8 -185 -10 -133 -8 -240 -15 -340 -20 -55 -4 -129 -8 -165 -10 -100 -6
-363 -17 -480 -21 -131 -4 -658 -4 -725 1 -156 10 -242 16 -260 20 -11 2 -32
4 -46 4 -14 1 -33 7 -42 14 -16 11 -16 15 -3 42 18 38 26 99 15 116 -6 11 -16
6 -44 -21 -34 -33 -40 -35 -100 -34 -71 1 -108 21 -104 58 2 12 -1 35 -4 51
-4 17 -9 39 -11 50 -2 11 -14 70 -26 130 -20 101 -28 146 -33 185 -1 8 2 17 7
20 4 3 19 -32 32 -78 52 -179 90 -211 279 -231 83 -9 1147 -7 1315 3 52 3 145
8 205 11 119 6 205 11 330 20 44 4 105 8 135 10 112 7 227 15 280 20 80 7 152
13 260 20 52 4 111 8 130 10 19 2 76 6 125 10 50 3 117 8 150 11 108 9 149 13
230 19 44 3 103 8 130 10 28 2 84 7 125 10 121 9 202 16 240 20 19 3 69 7 110
11 103 8 136 11 200 18 30 4 75 9 100 11 25 3 63 7 85 10 106 13 171 14 185 4
11 -8 12 -12 3 -16 -7 -2 -13 -15 -13 -28 0 -14 -9 -47 -20 -74 -22 -56 -16
-66 38 -77 36 -7 50 11 50 66 0 19 5 46 10 59 8 23 9 22 20 -20 23 -86 34 -80
27 15 -4 49 -8 98 -10 110 -3 16 -15 166 -17 206 -4 82 25 18 50 -110z m-4798
40 c0 -5 -2 -10 -4 -10 -3 0 -8 5 -11 10 -3 6 -1 10 4 10 6 0 11 -4 11 -10z
m-1180 -48 c0 -5 -36 -46 -81 -91 -44 -46 -78 -88 -76 -94 2 -8 43 -12 123
-14 106 -1 277 -9 374 -17 52 -5 169 -16 215 -21 22 -3 62 -7 90 -10 27 -3 56
-11 63 -19 12 -11 8 -19 -25 -51 -76 -74 -323 -220 -408 -240 -34 -8 -147 -8
-185 0 -14 3 -63 7 -110 10 -151 9 -234 15 -275 20 -22 3 -63 7 -92 9 -29 2
-57 7 -63 11 -16 10 28 45 57 46 12 1 28 3 33 4 6 1 20 3 33 4 19 1 16 5 -17
24 -22 12 -40 31 -42 41 -2 13 54 77 183 208 174 176 203 201 203 180z m932
-54 c16 -12 16 -15 -1 -51 l-18 -39 33 -66 c39 -78 55 -92 103 -92 30 0 44 -9
84 -49 53 -54 58 -75 38 -149 -7 -24 -11 -53 -11 -65 4 -44 2 -45 -77 -46 -89
-1 -103 5 -119 51 -12 37 -27 40 -32 6 -6 -33 -23 -50 -46 -44 -12 3 -59 8
-106 11 -47 3 -103 8 -125 10 -22 2 -85 7 -140 11 -109 7 -115 9 -115 28 0 32
82 58 140 44 11 -2 14 5 13 25 -2 24 7 34 59 68 34 21 79 44 100 50 48 13 110
73 138 133 23 52 25 70 15 150 l-8 58 29 -15 c16 -9 37 -21 46 -29z m-1535
-51 c-19 -34 -43 -78 -54 -97 -11 -19 -68 -122 -127 -228 -60 -106 -112 -194
-116 -197 -5 -3 -3 11 2 30 14 44 -2 68 -36 55 -30 -11 -196 -4 -209 9 -16 16
10 39 56 52 l41 11 -27 16 c-30 18 -35 43 -13 64 135 128 143 135 212 156 38
12 94 27 123 32 66 12 90 33 138 119 20 36 38 60 41 53 2 -7 -12 -40 -31 -75z
m307 -105 c8 -13 -7 -29 -51 -51 -31 -17 -47 -35 -67 -75 -30 -61 -80 -94
-139 -91 -50 2 -59 13 -47 54 12 44 35 68 76 81 33 11 33 12 17 37 -16 24 -16
26 2 39 21 15 200 20 209 6z m-287 -276 c-8 -20 -55 -32 -69 -18 -15 15 6 39
35 44 28 5 41 -6 34 -26z m2021 -114 c4 -28 -25 -35 -101 -25 -54 8 -57 9 -44
27 15 21 79 35 117 26 15 -4 26 -15 28 -28z m-1483 -102 c-3 -5 -12 -10 -18
-10 -7 0 -6 4 3 10 19 12 23 12 15 0z m6003 -127 c6 -10 5 -36 -4 -72 -7 -31
-14 -69 -14 -86 -2 -78 -54 -162 -127 -208 -36 -23 -139 -65 -175 -72 -9 -2
-50 -13 -90 -24 -77 -21 -229 -56 -288 -66 -19 -3 -46 -7 -60 -10 -31 -6 -71
-12 -130 -20 -25 -3 -56 -8 -70 -10 -42 -6 -111 -14 -185 -20 -38 -4 -86 -9
-105 -11 -30 -3 -136 -9 -335 -18 -43 -2 -50 -6 -53 -24 l-3 -22 -542 2 c-298
1 -636 -2 -752 -6 -438 -15 -519 -17 -860 -17 -519 -1 -915 16 -930 40 -8 15
20 41 49 47 16 3 37 9 45 14 13 7 11 9 -10 10 -43 0 -61 21 -61 69 1 51 15 71
51 72 14 0 35 4 46 8 20 8 20 8 -47 26 -5 2 -15 3 -23 4 -21 1 -19 38 3 50 9
5 62 8 117 6 55 -2 163 -7 240 -10 582 -22 1052 -22 1340 0 28 2 111 7 185 11
74 3 155 7 180 9 25 2 115 6 200 9 362 15 635 27 710 31 190 12 259 16 300 20
25 2 77 7 115 10 39 4 81 8 95 10 14 2 54 6 90 10 36 3 72 8 80 10 8 2 39 7
69 10 30 4 63 9 75 11 12 2 40 6 63 9 37 4 151 23 246 40 16 3 65 15 110 26
45 11 89 22 97 24 25 5 142 51 195 75 96 44 110 49 132 50 12 0 26 -7 31 -17z
m-4661 -50 c-3 -10 -5 -4 -5 12 0 17 2 24 5 18 2 -7 2 -21 0 -30z m-1642 -188
c116 -3 242 -8 280 -10 39 -2 124 -6 190 -9 66 -4 147 -8 180 -11 33 -2 107
-7 165 -11 58 -3 121 -7 140 -9 19 -1 87 -5 150 -9 160 -10 202 -15 217 -27
18 -16 16 -29 -8 -56 l-22 -22 27 -11 c15 -5 31 -10 36 -10 13 0 28 33 23 48
-8 22 28 52 63 52 61 0 64 -5 64 -91 0 -67 -3 -82 -23 -105 -20 -23 -32 -27
-73 -27 -87 -1 -367 12 -430 18 -75 8 -82 9 -114 6 -21 -1 -22 -3 -9 -11 18
-10 100 -18 259 -25 178 -8 230 -18 230 -44 0 -28 -21 -39 -65 -36 -22 2 -92
6 -155 9 -63 4 -140 9 -170 11 -30 2 -104 6 -165 9 -60 4 -137 9 -170 11 -33
3 -109 7 -170 10 -60 4 -135 8 -165 10 -30 2 -107 7 -170 10 -63 3 -149 8
-190 11 -62 4 -378 12 -560 14 -47 0 -80 13 -67 26 4 5 30 9 57 10 72 4 163
25 151 37 -5 5 -37 11 -72 13 -98 8 -109 11 -109 37 0 27 23 63 50 77 11 6 56
13 102 16 46 4 97 8 113 9 17 2 39 4 50 4 38 2 0 20 -49 24 -56 4 -83 29 -55
50 17 13 102 13 464 2z m-833 -20 c0 -5 -5 -11 -11 -13 -6 -2 -11 4 -11 13 0
9 5 15 11 13 6 -2 11 -8 11 -13z m318 -5 c0 -5 -7 -10 -15 -10 -8 0 -15 5 -15
10 0 6 7 10 15 10 8 0 15 -4 15 -10z m1980 -355 c-7 -8 -16 -12 -21 -9 -13 8
-1 24 18 24 13 0 13 -3 3 -15z"/>
<path d="M6830 10781 c0 -5 6 -14 14 -20 11 -9 16 -9 21 0 4 6 1 15 -6 20 -18
11 -29 11 -29 0z"/>
<path d="M5245 9984 c-73 -13 -210 -52 -260 -74 -241 -106 -325 -163 -426
-290 -43 -53 -139 -195 -139 -204 0 -22 42 4 113 72 54 51 106 89 152 111 56
27 260 86 400 115 11 2 38 8 60 13 22 6 55 8 73 7 47 -4 125 -45 128 -68 3
-24 21 -36 55 -36 39 0 50 -19 34 -57 -11 -26 -21 -33 -52 -38 -21 -3 -101
-21 -178 -40 -237 -58 -399 -155 -491 -295 -25 -37 -28 -51 -28 -126 -1 -80 0
-84 21 -84 13 0 40 7 60 15 34 13 137 41 188 51 16 3 60 12 95 19 3 1 19 4 35
8 18 4 60 0 106 -11 79 -19 117 -20 159 -4 14 5 27 9 30 9 3 0 15 5 28 12 20
11 21 14 7 27 -8 8 -19 22 -24 31 -8 15 -15 15 -64 4 -83 -20 -88 -8 -9 23 43
17 80 25 92 21 11 -4 31 -28 45 -55 13 -26 30 -50 37 -52 11 -4 -86 -61 -225
-133 l-57 -30 42 -3 c81 -6 178 31 338 131 56 36 103 75 139 118 30 35 77 79
104 97 59 41 87 95 80 155 -5 46 -18 76 -90 202 -28 50 -62 124 -74 165 -20
63 -32 84 -79 132 -37 38 -68 60 -95 67 -55 15 -233 12 -330 -5z m80 -524
c-10 -16 -56 -37 -98 -44 -21 -4 -45 -10 -53 -13 -8 -3 -14 -1 -14 3 1 20 18
34 51 39 19 3 48 10 64 14 41 13 57 13 50 1z m-235 -85 c0 -18 -43 -65 -60
-65 -18 0 -11 17 22 49 37 36 38 36 38 16z m750 -55 c8 -5 11 -12 7 -16 -4 -4
-15 0 -24 9 -18 18 -8 23 17 7z m-115 -39 c8 -15 -47 -61 -72 -61 -13 0 -31
-9 -40 -20 -10 -11 -29 -20 -43 -20 -24 0 -22 2 20 41 62 56 121 82 135 60z"/>
<path d="M7318 9770 c-41 -34 -82 -95 -74 -109 6 -9 113 57 136 84 15 18 9 49
-10 53 -8 1 -32 -11 -52 -28z"/>
<path d="M7070 9590 c-13 -8 -13 -10 2 -10 9 0 20 5 23 10 8 13 -5 13 -25 0z"/>
<path d="M7010 9579 c0 -5 5 -7 10 -4 6 3 10 8 10 11 0 2 -4 4 -10 4 -5 0 -10
-5 -10 -11z"/>
<path d="M5180 8909 c0 -5 5 -7 10 -4 6 3 10 8 10 11 0 2 -4 4 -10 4 -5 0 -10
-5 -10 -11z"/>
<path d="M6876 8665 c-32 -14 -74 -36 -92 -50 -37 -28 -77 -91 -52 -82 7 2 21
0 30 -5 12 -6 28 -3 50 9 18 9 45 16 59 14 37 -3 129 54 129 81 0 32 -19 58
-43 58 -12 -1 -49 -12 -81 -25z"/>
<path d="M7235 7890 c-4 -6 -3 -16 3 -22 6 -6 12 -6 17 2 4 6 3 16 -3 22 -6 6
-12 6 -17 -2z"/>
<path d="M6980 7707 c0 -8 7 -17 15 -21 8 -3 15 -2 15 3 0 5 -7 14 -15 21 -12
10 -15 10 -15 -3z"/>
<path d="M6402 7618 c-18 -18 -15 -36 7 -43 33 -10 263 4 338 21 101 23 84 39
-31 29 -97 -9 -247 -9 -282 -1 -11 3 -26 0 -32 -6z"/>
<path d="M7239 7560 c-20 -3 -56 -21 -79 -40 -51 -40 -105 -60 -184 -66 -80
-6 -148 -13 -221 -21 -60 -7 -160 -8 -353 -3 -57 1 -108 -2 -113 -7 -11 -11
-2 -43 12 -43 5 0 16 -14 24 -31 18 -34 57 -54 125 -64 24 -4 72 -18 105 -31
33 -14 85 -27 117 -31 52 -5 56 -8 62 -35 8 -39 30 -45 82 -20 42 21 45 21 80
5 34 -17 36 -17 50 2 8 10 14 24 14 31 0 6 13 14 29 17 19 4 39 20 58 46 15
22 55 58 88 80 97 66 136 110 135 154 0 4 9 16 20 27 36 36 22 44 -51 30z"/>
<path d="M6044 7343 c-13 -4 -7 -43 6 -43 12 0 22 32 13 40 -4 4 -13 6 -19 3z"/>
<path d="M8584 9224 c3 -9 6 -18 6 -20 0 -3 4 -3 10 1 11 7 2 35 -12 35 -6 0
-7 -7 -4 -16z"/>
<path d="M8655 8898 c4 -23 8 -49 20 -143 4 -27 11 -54 16 -59 12 -13 1 162
-13 197 -13 33 -30 36 -23 5z"/>
<path d="M7985 4250 l-30 -8 33 -1 c17 0 32 4 32 9 0 6 -1 9 -2 9 -2 -1 -16
-5 -33 -9z"/>
<path d="M7935 4240 c3 -5 8 -10 11 -10 2 0 4 5 4 10 0 6 -5 10 -11 10 -5 0
-7 -4 -4 -10z"/>
<path d="M8508 4185 c-2 -2 -21 -6 -42 -9 -50 -8 -55 -12 -19 -18 26 -3 132
18 108 22 -5 1 -18 3 -27 5 -9 2 -18 2 -20 0z"/>
<path d="M6670 4160 c0 -5 7 -7 15 -4 8 4 15 8 15 10 0 2 -7 4 -15 4 -8 0 -15
-4 -15 -10z"/>
<path d="M8295 4150 c-17 -7 -15 -9 12 -9 17 -1 35 4 38 9 7 12 -22 12 -50 0z"/>
<path d="M8095 4130 l-40 -7 35 -1 c19 -1 42 3 50 8 16 11 14 11 -45 0z"/>
<path d="M10610 3208 c0 -7 18 -28 40 -46 50 -41 53 -24 4 23 -39 38 -44 41
-44 23z"/>
<path d="M5555 3390 c-4 -6 7 -10 27 -10 25 0 29 3 18 10 -19 13 -37 13 -45 0z"/>
<path d="M4195 2790 c-3 -5 3 -10 14 -10 12 0 21 5 21 10 0 6 -6 10 -14 10 -8
0 -18 -4 -21 -10z"/>
<path d="M1625 1680 c-11 -17 5 -32 21 -19 8 6 14 15 14 20 0 12 -27 11 -35
-1z"/>
<path d="M5845 1230 c-3 -6 1 -13 10 -16 19 -8 30 0 20 15 -8 14 -22 14 -30 1z"/>
<path d="M4108 1358 c17 -8 26 -8 34 0 9 9 4 12 -22 11 -33 0 -34 -1 -12 -11z"/>
<path d="M5155 1140 c-3 -5 -1 -10 4 -10 6 0 11 5 11 10 0 6 -2 10 -4 10 -3 0
-8 -4 -11 -10z"/>
<path d="M5361 1132 c-13 -25 21 -48 39 -27 10 12 10 18 0 30 -16 20 -27 19
-39 -3z"/>
<path d="M8958 463 c7 -3 16 -2 19 1 4 3 -2 6 -13 5 -11 0 -14 -3 -6 -6z"/>
<path d="M7830 409 c0 -5 5 -7 10 -4 6 3 10 8 10 11 0 2 -4 4 -10 4 -5 0 -10
-5 -10 -11z"/>
<path d="M7868 413 c7 -3 16 -2 19 1 4 3 -2 6 -13 5 -11 0 -14 -3 -6 -6z"/>
<path d="M8905 291 c-3 -6 4 -9 15 -8 11 1 20 5 20 9 0 11 -28 10 -35 -1z"/>
<path d="M8035 250 c-3 -5 1 -10 10 -10 9 0 13 5 10 10 -3 6 -8 10 -10 10 -2
0 -7 -4 -10 -10z"/>
<path d="M7480 240 c-23 -7 -23 -8 -3 -9 12 -1 25 4 28 9 3 6 5 10 3 9 -2 -1
-14 -5 -28 -9z"/>
<path d="M4178 483 c7 -3 16 -2 19 1 4 3 -2 6 -13 5 -11 0 -14 -3 -6 -6z"/>
<path d="M4660 466 c0 -9 40 -13 46 -5 3 5 -6 9 -20 9 -14 0 -26 -2 -26 -4z"/>
<path d="M4980 460 c-8 -4 -30 -7 -47 -5 -18 1 -31 -1 -28 -5 3 -4 51 -8 107
-9 107 -2 126 4 45 13 -27 3 -52 8 -55 10 -4 2 -14 1 -22 -4z"/>
<path d="M4868 453 c7 -3 16 -2 19 1 4 3 -2 6 -13 5 -11 0 -14 -3 -6 -6z"/>
<path d="M5190 430 c0 -5 5 -10 10 -10 6 0 10 5 10 10 0 6 -4 10 -10 10 -5 0
-10 -4 -10 -10z"/>
<path d="M5423 423 c-7 -3 -13 -9 -13 -14 0 -12 37 -12 44 0 7 11 -14 20 -31
14z"/>
<path d="M3800 340 c-7 -4 0 -10 17 -13 15 -3 32 -2 36 2 11 11 -38 20 -53 11z"/>
<path d="M3628 333 c7 -3 16 -2 19 1 4 3 -2 6 -13 5 -11 0 -14 -3 -6 -6z"/>
<path d="M3975 330 c-3 -5 1 -10 10 -10 9 0 13 5 10 10 -3 6 -8 10 -10 10 -2
0 -7 -4 -10 -10z"/>
<path d="M4654 292 c6 -10 52 -9 62 1 4 4 -9 7 -30 7 -20 0 -35 -4 -32 -8z"/>
<path d="M6226 12322 c-17 -16 6 -25 172 -73 38 -11 64 -8 49 7 -10 10 -216
72 -221 66z"/>
<path d="M6300 12160 c0 -5 5 -10 10 -10 6 0 10 5 10 10 0 6 -4 10 -10 10 -5
0 -10 -4 -10 -10z"/>
<path d="M10235 5760 c3 -5 13 -10 21 -10 8 0 12 5 9 10 -3 6 -13 10 -21 10
-8 0 -12 -4 -9 -10z"/>
<path d="M10388 5762 c-10 -2 -18 -7 -18 -12 0 -15 55 -18 85 -5 16 7 23 14
15 15 -40 5 -67 6 -82 2z"/>
<path d="M11922 5678 c5 -15 28 -23 28 -10 0 5 -7 13 -16 16 -10 4 -14 1 -12
-6z"/>
<path d="M11706 5631 c-4 -5 0 -11 6 -14 18 -5 48 3 48 14 0 12 -47 12 -54 0z"/>
<path d="M11850 5533 c-72 -12 -169 -55 -170 -75 0 -4 49 -32 110 -62 254
-128 407 -272 615 -580 l40 -59 3 141 3 140 -32 54 c-47 80 -84 125 -171 210
-75 73 -88 98 -51 98 8 0 58 -21 111 -46 89 -42 116 -63 134 -104 4 -8 7 15 7
52 l1 66 -60 40 c-82 55 -180 91 -315 116 -42 8 -195 14 -225 9z"/>
<path d="M2684 5070 c-12 -5 -37 -28 -56 -52 -51 -64 -56 -75 -22 -52 16 11
46 29 67 39 54 29 64 85 11 65z"/>
<path d="M2423 4781 c-31 -23 -43 -41 -58 -87 -19 -61 -38 -84 -186 -233 -41
-42 -118 -130 -171 -196 -53 -66 -107 -133 -121 -148 -77 -86 -115 -142 -103
-154 3 -4 26 21 162 182 92 109 247 262 316 313 31 23 87 58 125 79 69 38 96
63 146 136 28 41 28 41 6 49 -26 10 -92 -7 -109 -27 -15 -19 -50 -20 -50 -2 0
8 16 25 37 38 41 27 69 64 55 73 -5 3 -27 -7 -49 -23z"/>
<path d="M2626 4778 c-9 -12 -16 -29 -16 -38 0 -8 -7 -24 -15 -34 -31 -42 -5
-65 29 -27 14 15 17 30 12 61 -5 36 -3 42 17 50 16 6 17 9 5 9 -9 1 -24 -9
-32 -21z"/>
<path d="M2677 4206 c-13 -19 -14 -27 -3 -41 11 -16 13 -15 28 7 13 19 13 27
3 41 -12 16 -14 16 -28 -7z"/>
<path d="M1650 3785 c-8 -9 -8 -15 -2 -15 12 0 26 19 19 26 -2 2 -10 -2 -17
-11z"/>
<path d="M1113 2998 c-11 -24 -17 -51 -14 -60 4 -12 13 0 28 42 25 69 17 80
-14 18z"/>
<path d="M1056 2861 c-4 -7 -5 -15 -2 -18 9 -9 19 4 14 18 -4 11 -6 11 -12 0z"/>
<path d="M1022 2660 c0 -14 2 -19 5 -12 2 6 2 18 0 25 -3 6 -5 1 -5 -13z"/>
<path d="M926 2503 c-92 -117 -127 -229 -90 -292 10 -17 25 -30 34 -29 10 2
34 61 72 173 31 94 57 178 57 188 1 33 -27 17 -73 -40z"/>
<path d="M803 2152 c-12 -7 -32 -51 -38 -83 -2 -9 -15 -63 -29 -120 -23 -94
-117 -531 -130 -604 -3 -16 -12 -68 -21 -115 -36 -197 -55 -313 -51 -317 3 -3
12 22 22 54 9 32 34 112 55 178 56 176 96 317 103 356 3 19 8 44 10 57 3 12 8
55 11 95 6 69 36 210 54 252 42 97 78 212 71 230 -8 21 -37 30 -57 17z"/>
<path d="M497 163 c-3 -5 -8 -24 -13 -43 -4 -19 -9 -39 -10 -45 -1 -5 -6 -25
-9 -42 l-7 -33 141 0 142 0 -78 59 c-43 32 -89 71 -102 85 -24 25 -55 34 -64
19z"/>
</g>
</svg>
